<?xml version="1.0" encoding="UTF-8"?>
<svg id="Camada_2" data-name="Camada 2" xmlns="http://www.w3.org/2000/svg" xmlns:xlink="http://www.w3.org/1999/xlink" viewBox="0 0 866 262">
  <defs>
    <style>
      .cls-1 {
        filter: url(#drop-shadow-7);
      }

      .cls-2 {
        fill: #fff;
        opacity: 0;
      }

      .cls-3 {
        filter: url(#drop-shadow-4);
      }

      .cls-4 {
        fill: none;
        filter: url(#drop-shadow-9);
        stroke: #000;
        stroke-miterlimit: 10;
        stroke-width: 16px;
      }

      .cls-5 {
        filter: url(#drop-shadow-8);
      }

      .cls-6 {
        filter: url(#drop-shadow-3);
      }

      .cls-7 {
        filter: url(#drop-shadow-1);
      }

      .cls-8 {
        filter: url(#drop-shadow-5);
      }

      .cls-9 {
        filter: url(#drop-shadow-2);
      }

      .cls-10 {
        fill: #ff931e;
        filter: url(#drop-shadow-6);
      }
    </style>
    <filter id="drop-shadow-1" filterUnits="userSpaceOnUse">
      <feOffset dx="0" dy="0"/>
      <feGaussianBlur result="blur" stdDeviation="2"/>
      <feFlood flood-color="#1c1c1c" flood-opacity=".8"/>
      <feComposite in2="blur" operator="in"/>
      <feComposite in="SourceGraphic"/>
    </filter>
    <filter id="drop-shadow-2" filterUnits="userSpaceOnUse">
      <feOffset dx="0" dy="0"/>
      <feGaussianBlur result="blur-2" stdDeviation="2"/>
      <feFlood flood-color="#1c1c1c" flood-opacity=".8"/>
      <feComposite in2="blur-2" operator="in"/>
      <feComposite in="SourceGraphic"/>
    </filter>
    <filter id="drop-shadow-3" filterUnits="userSpaceOnUse">
      <feOffset dx="0" dy="0"/>
      <feGaussianBlur result="blur-3" stdDeviation="2"/>
      <feFlood flood-color="#1c1c1c" flood-opacity=".8"/>
      <feComposite in2="blur-3" operator="in"/>
      <feComposite in="SourceGraphic"/>
    </filter>
    <filter id="drop-shadow-4" filterUnits="userSpaceOnUse">
      <feOffset dx="0" dy="0"/>
      <feGaussianBlur result="blur-4" stdDeviation="2"/>
      <feFlood flood-color="#1c1c1c" flood-opacity=".8"/>
      <feComposite in2="blur-4" operator="in"/>
      <feComposite in="SourceGraphic"/>
    </filter>
    <filter id="drop-shadow-5" filterUnits="userSpaceOnUse">
      <feOffset dx="0" dy="0"/>
      <feGaussianBlur result="blur-5" stdDeviation="4"/>
      <feFlood flood-color="#161616" flood-opacity=".8"/>
      <feComposite in2="blur-5" operator="in"/>
      <feComposite in="SourceGraphic"/>
    </filter>
    <filter id="drop-shadow-6" filterUnits="userSpaceOnUse">
      <feOffset dx="0" dy="0"/>
      <feGaussianBlur result="blur-6" stdDeviation="4"/>
      <feFlood flood-color="#ff8c00" flood-opacity=".8"/>
      <feComposite in2="blur-6" operator="in"/>
      <feComposite in="SourceGraphic"/>
    </filter>
    <filter id="drop-shadow-7" filterUnits="userSpaceOnUse">
      <feOffset dx="0" dy="0"/>
      <feGaussianBlur result="blur-7" stdDeviation="2"/>
      <feFlood flood-color="#161616" flood-opacity=".8"/>
      <feComposite in2="blur-7" operator="in"/>
      <feComposite in="SourceGraphic"/>
    </filter>
    <filter id="drop-shadow-8" filterUnits="userSpaceOnUse">
      <feOffset dx="0" dy="0"/>
      <feGaussianBlur result="blur-8" stdDeviation="2"/>
      <feFlood flood-color="#111" flood-opacity=".8"/>
      <feComposite in2="blur-8" operator="in"/>
      <feComposite in="SourceGraphic"/>
    </filter>
    <filter id="drop-shadow-9" filterUnits="userSpaceOnUse">
      <feOffset dx="0" dy="0"/>
      <feGaussianBlur result="blur-9" stdDeviation="3"/>
      <feFlood flood-color="#191919" flood-opacity=".8"/>
      <feComposite in2="blur-9" operator="in"/>
      <feComposite in="SourceGraphic"/>
    </filter>
  </defs>
  <g id="Camada_1-2" data-name="Camada 1">
    <rect class="cls-2" width="866" height="262"/>
    <g>
      <path class="cls-7" d="M155.72,126.08c0,15-2.8,27.84-8.4,38.52-5.6,10.68-13.21,18.85-22.84,24.51-9.63,5.67-20.55,8.5-32.74,8.5s-23.11-2.84-32.74-8.53c-9.63-5.69-17.25-13.87-22.84-24.54-5.6-10.68-8.4-23.49-8.4-38.45s2.8-27.84,8.4-38.52c5.6-10.68,13.21-18.84,22.84-24.51,9.63-5.67,20.54-8.5,32.74-8.5s23.11,2.83,32.74,8.5c9.63,5.67,17.24,13.84,22.84,24.51,5.6,10.68,8.4,23.51,8.4,38.52Zm-25.36,0c0-10.56-1.64-19.48-4.93-26.76-3.29-7.27-7.83-12.78-13.63-16.52-5.8-3.74-12.49-5.61-20.06-5.61s-14.26,1.87-20.06,5.61c-5.8,3.74-10.35,9.25-13.63,16.52-3.29,7.28-4.93,16.19-4.93,26.76s1.64,19.48,4.93,26.76c3.29,7.27,7.83,12.78,13.63,16.52,5.8,3.74,12.49,5.61,20.06,5.61s14.26-1.87,20.06-5.61,10.35-9.25,13.63-16.52,4.93-16.19,4.93-26.76Z"/>
      <path class="cls-9" d="M179.65,193.87V58.29c0-1.01,.82-1.84,1.84-1.84h50.38c10.7,0,19.68,2,26.96,5.98,7.28,3.99,12.78,9.46,16.52,16.42s5.61,14.85,5.61,23.7-1.88,16.86-5.64,23.8c-3.76,6.93-9.32,12.39-16.66,16.35-7.34,3.97-16.39,5.95-27.13,5.95h-32.77c-1.01,0-1.84-.82-1.84-1.84v-17.06c0-1.01,.82-1.84,1.84-1.84h29.37c6.25,0,11.38-1.09,15.37-3.26s6.95-5.17,8.87-8.97c1.93-3.81,2.89-8.18,2.89-13.12s-.96-9.29-2.89-13.06c-1.93-3.76-4.9-6.7-8.91-8.81-4.01-2.11-9.17-3.16-15.47-3.16h-21.28c-1.01,0-1.84,.82-1.84,1.84v114.5c0,1.01-.82,1.84-1.84,1.84h-21.55c-1.01,0-1.84-.82-1.84-1.84Z"/>
      <path class="cls-6" d="M302.85,193.87V58.29c0-1.01,.82-1.84,1.84-1.84h86.89c1.01,0,1.84,.82,1.84,1.84v17.47c0,1.01-.82,1.84-1.84,1.84h-61.67c-1.01,0-1.84,.82-1.84,1.84v34.13c0,1.01,.82,1.84,1.84,1.84h56.97c1.01,0,1.84,.82,1.84,1.84v17.47c0,1.01-.82,1.84-1.84,1.84h-56.97c-1.01,0-1.84,.82-1.84,1.84v34.33c0,1.01,.82,1.84,1.84,1.84h62.21c1.01,0,1.84,.82,1.84,1.84v17.47c0,1.01-.82,1.84-1.84,1.84h-87.43c-1.01,0-1.84-.82-1.84-1.84Z"/>
      <path class="cls-3" d="M423.08,58.18h22.28c.62,0,1.2,.31,1.54,.84l54.92,84.47c1,1.53,3.38,.83,3.38-1V60.02c0-1.01,.82-1.84,1.84-1.84h22.5c1.01,0,1.84,.82,1.84,1.84V193.87c0,1.01-.82,1.84-1.84,1.84h-22.35c-.62,0-1.2-.31-1.54-.83l-54.85-84.2c-1-1.53-3.38-.83-3.38,1v82.19c0,1.01-.82,1.84-1.84,1.84h-22.5c-1.01,0-1.84-.82-1.84-1.84V60.02c0-1.01,.82-1.84,1.84-1.84Z"/>
      <path class="cls-8" d="M612.24,147.35l-31.32,47.85c-.2,.31-.55,.5-.92,.5h-27.01c-.87,0-1.4-.97-.92-1.7l45-68.6c.24-.37,.24-.84,0-1.2l-42.11-64.32c-.48-.73,.05-1.7,.92-1.7h26.82c.37,0,.72,.19,.92,.5l27.66,42.26c.43,.66,1.4,.66,1.84,0l27.72-42.26c.2-.31,.55-.5,.92-.5h26.98c.79,0,1.26,.88,.83,1.54l-42.63,65.14-14.72,22.5Z"/>
      <path class="cls-10" d="M631.81,132.27l38.86,59.37c1.14,1.75-.11,4.07-2.2,4.07h-23.16c-.89,0-1.71-.45-2.2-1.19l-26.55-40.56c-.23-.35-.23-.81,0-1.16l13.49-20.53c.42-.64,1.35-.63,1.76,0Z"/>
    </g>
    <g>
      <path class="cls-1" d="M718.83,177.81V78.14c0-1.07,.87-1.94,1.94-1.94h39.52c7.62,0,13.97,1.13,19.06,3.39,5.09,2.26,8.92,5.38,11.48,9.38,2.56,3.99,3.84,8.59,3.84,13.78,0,4.04-.81,7.59-2.43,10.64-1.62,3.05-3.84,5.54-6.65,7.48-2.82,1.94-6.03,3.31-9.63,4.12v1.01c3.94,.17,7.64,1.28,11.1,3.34,3.46,2.06,6.26,4.93,8.42,8.62,2.16,3.69,3.24,8.08,3.24,13.17,0,5.49-1.36,10.39-4.07,14.69-2.71,4.3-6.72,7.69-12.01,10.19-5.29,2.5-11.82,3.74-19.57,3.74h-42.3c-1.07,0-1.94-.87-1.94-1.94Zm21.89-60.22c0,1.07,.87,1.94,1.94,1.94h14.29c3,0,5.67-.53,8.01-1.59,2.34-1.06,4.2-2.57,5.56-4.52,1.36-1.95,2.05-4.3,2.05-7.03,0-3.74-1.32-6.76-3.97-9.05-2.65-2.29-6.4-3.44-11.25-3.44h-14.69c-1.07,0-1.94,.87-1.94,1.94v21.75Zm0,42.32c0,1.07,.87,1.94,1.94,1.94h15.91c6.1,0,10.55-1.17,13.35-3.51,2.8-2.34,4.2-5.47,4.2-9.38,0-2.87-.69-5.39-2.07-7.59-1.38-2.19-3.35-3.91-5.89-5.16s-5.57-1.87-9.07-1.87h-16.41c-1.07,0-1.94,.87-1.94,1.94v23.62Z"/>
      <path class="cls-5" d="M834.81,78.14v99.66c0,1.07-.87,1.94-1.94,1.94h-18c-1.07,0-1.94-.87-1.94-1.94V78.14c0-1.07,.87-1.94,1.94-1.94h18c1.07,0,1.94,.87,1.94,1.94Z"/>
    </g>
    <polyline class="cls-4" points="820.54 58.05 696.88 58.05 696.88 197.66 820.54 197.66"/>
  </g>
</svg>