<?xml version="1.0" encoding="UTF-8"?>
<svg id="Camada_1" data-name="Camada 1" xmlns="http://www.w3.org/2000/svg" viewBox="0 0 223.46 123.47">
  <line x1=".03" y1="44.39" x2="149.71" y2="3.51" style="fill: #fff; opacity: .19; stroke: #4d4d4d; stroke-miterlimit: 10; stroke-width: .25px;"/>
  <line x1="6.73" y1="51.3" x2="156.41" y2="10.42" style="fill: #fff; opacity: .19; stroke: #4d4d4d; stroke-miterlimit: 10; stroke-width: .25px;"/>
  <line x1="20.14" y1="65.12" x2="169.82" y2="24.24" style="fill: #fff; opacity: .19; stroke: #4d4d4d; stroke-miterlimit: 10; stroke-width: .25px;"/>
  <line x1="13.69" y1="58.09" x2="163.37" y2="17.21" style="fill: #fff; opacity: .19; stroke: #4d4d4d; stroke-miterlimit: 10; stroke-width: .25px;"/>
  <line x1="26.84" y1="72.03" x2="176.52" y2="31.15" style="fill: #fff; opacity: .19; stroke: #4d4d4d; stroke-miterlimit: 10; stroke-width: .25px;"/>
  <line x1="40.24" y1="85.85" x2="189.92" y2="44.97" style="fill: gray; opacity: .19; stroke: #4d4d4d; stroke-miterlimit: 10; stroke-width: .25px;"/>
  <line x1="46.94" y1="92.76" x2="196.62" y2="51.88" style="fill: gray; opacity: .19; stroke: #4d4d4d; stroke-miterlimit: 10; stroke-width: .25px;"/>
  <line x1="60.34" y1="106.58" x2="210.02" y2="65.69" style="fill: gray; opacity: .19; stroke: #4d4d4d; stroke-miterlimit: 10; stroke-width: .25px;"/>
  <line x1="67.04" y1="113.49" x2="216.72" y2="72.6" style="fill: gray; opacity: .19; stroke: #4d4d4d; stroke-miterlimit: 10; stroke-width: .25px;"/>
  <line x1="73.75" y1="120.4" x2="223.43" y2="79.51" style="fill: gray; opacity: .19; stroke: #4d4d4d; stroke-miterlimit: 10; stroke-width: .25px;"/>
  <line x1="131.21" y1=".09" x2="217.45" y2="89.01" style="fill: #fff; opacity: .19; stroke: #4d4d4d; stroke-miterlimit: 10; stroke-width: .25px;"/>
  <line x1="119.77" y1="3.21" x2="206.01" y2="92.13" style="fill: #fff; opacity: .19; stroke: #4d4d4d; stroke-miterlimit: 10; stroke-width: .25px;"/>
  <line x1="108.33" y1="6.34" x2="194.57" y2="95.26" style="fill: #fff; opacity: .19; stroke: #4d4d4d; stroke-miterlimit: 10; stroke-width: .25px;"/>
  <line x1="96.88" y1="9.46" x2="183.12" y2="98.38" style="fill: #fff; opacity: .19; stroke: #4d4d4d; stroke-miterlimit: 10; stroke-width: .25px;"/>
  <line x1="85.44" y1="12.59" x2="171.68" y2="101.51" style="fill: #fff; opacity: .19; stroke: #4d4d4d; stroke-miterlimit: 10; stroke-width: .25px;"/>
  <line x1="74" y1="15.71" x2="160.24" y2="104.63" style="fill: gray; opacity: .19; stroke: #4d4d4d; stroke-miterlimit: 10; stroke-width: .25px;"/>
  <line x1="62.56" y1="18.84" x2="148.8" y2="107.76" style="fill: gray; opacity: .19; stroke: #4d4d4d; stroke-miterlimit: 10; stroke-width: .25px;"/>
  <line x1="51.12" y1="21.96" x2="137.36" y2="110.88" style="fill: gray; opacity: .19; stroke: #4d4d4d; stroke-miterlimit: 10; stroke-width: .25px;"/>
  <line x1="39.67" y1="25.09" x2="125.91" y2="114.01" style="fill: gray; opacity: .19; stroke: #4d4d4d; stroke-miterlimit: 10; stroke-width: .25px;"/>
  <line x1="28.23" y1="28.21" x2="114.47" y2="117.13" style="fill: gray; opacity: .19; stroke: #4d4d4d; stroke-miterlimit: 10; stroke-width: .25px;"/>
  <line x1="16.79" y1="31.34" x2="103.03" y2="120.26" style="fill: gray; opacity: .19; stroke: #4d4d4d; stroke-miterlimit: 10; stroke-width: .25px;"/>
  <line x1="5.35" y1="34.47" x2="91.59" y2="123.38" style="fill: gray; opacity: .19; stroke: #4d4d4d; stroke-miterlimit: 10; stroke-width: .25px;"/>
  <line x1="33.69" y1="79.09" x2="183.37" y2="38.21" style="fill: #fff; opacity: .19; stroke: #4d4d4d; stroke-miterlimit: 10; stroke-width: .25px;"/>
  <line x1="53.69" y1="100.09" x2="203.37" y2="59.21" style="fill: gray; opacity: .19; stroke: #4d4d4d; stroke-miterlimit: 10; stroke-width: .25px;"/>
</svg>