<?xml version="1.0" encoding="UTF-8"?>
<svg id="Camada_1" data-name="Camada 1" xmlns="http://www.w3.org/2000/svg" xmlns:xlink="http://www.w3.org/1999/xlink" viewBox="0 0 104.47 93.55">
  <defs>
    <filter id="drop-shadow-1" filterUnits="userSpaceOnUse">
      <feOffset dx="0" dy="0"/>
      <feGaussianBlur result="blur" stdDeviation="1"/>
      <feFlood flood-color="#000" flood-opacity=".9"/>
      <feComposite in2="blur" operator="in"/>
      <feComposite in="SourceGraphic"/>
    </filter>
    <filter id="drop-shadow-2" filterUnits="userSpaceOnUse">
      <feOffset dx="0" dy="0"/>
      <feGaussianBlur result="blur-2" stdDeviation="1"/>
      <feFlood flood-color="#000" flood-opacity=".9"/>
      <feComposite in2="blur-2" operator="in"/>
      <feComposite in="SourceGraphic"/>
    </filter>
    <filter id="drop-shadow-3" filterUnits="userSpaceOnUse">
      <feOffset dx="0" dy="0"/>
      <feGaussianBlur result="blur-3" stdDeviation="1"/>
      <feFlood flood-color="#00c2e2" flood-opacity="1"/>
      <feComposite in2="blur-3" operator="in"/>
      <feComposite in="SourceGraphic"/>
    </filter>
  </defs>
  <rect width="72.33" height="79.73" style="opacity: 0;"/>
  <path d="M13.3,60.9l9.8,.1c.35,0,.68-.18,.86-.47L55.5,8.27c.42-.67-.06-1.54-.85-1.54h-8.63c-.35,0-.67,.18-.85,.47L12.46,59.36c-.42,.67,.05,1.53,.84,1.54Z" style="filter: url(#drop-shadow-1);"/>
  <path d="M31.78,24.43l-4.9,7.64c-.4,.62-1.31,.62-1.71,0L9.99,9.27c-.42-.67,.06-1.55,.86-1.55h9.62c.35,0,.67,.18,.86,.47l10.46,15.14c.21,.33,.21,.75,0,1.08Z" style="filter: url(#drop-shadow-2);"/>
  <path d="M62.08,72.91l-9.64,.09c-.37,0-.71-.18-.91-.5l-15.89-25.34c-.21-.34-.22-.78,0-1.12l4.76-7.73c.41-.67,1.38-.67,1.8,0l20.77,32.98c.44,.7-.06,1.62-.89,1.63Z" style="fill: #29abe2; filter: url(#drop-shadow-3);"/>
</svg>